<svg width="31" height="31" viewBox="0 0 31 31" fill="none" xmlns="http://www.w3.org/2000/svg">
<path d="M15.3 2.5C22.3 2.5 28 8.2 28 15.2C28 22.2 22.3 27.9 15.3 27.9C8.3 27.9 2.5 22.3 2.5 15.3C2.5 8.3 8.3 2.5 15.3 2.5ZM15.3 0C6.8 0 0 6.8 0 15.3C0 23.7 6.8 30.6 15.3 30.6C23.7 30.6 30.6 23.8 30.6 15.3C30.6 6.8 23.7 0 15.3 0ZM12.7 12.7H10.2V15.2H12.7V22.8H16.5V15.2H18.8L19 12.7H16.5C16.5 12.7 16.5 12.1 16.5 11.6C16.5 11 16.6 10.8 17.2 10.8C17.7 10.8 19 10.8 19 10.8V7.6C19 7.6 16.3 7.6 15.9 7.6C13.6 7.6 12.6 8.6 12.6 10.5C12.7 12.3 12.7 12.7 12.7 12.7Z" fill="#57984C"/>
</svg>
