<svg width="31" height="31" viewBox="0 0 31 31" fill="none" xmlns="http://www.w3.org/2000/svg">
<path d="M15.3 2.5C22.3 2.5 28 8.2 28 15.2C28 22.2 22.3 27.9 15.3 27.9C8.3 27.9 2.5 22.3 2.5 15.3C2.5 8.3 8.3 2.5 15.3 2.5ZM15.3 0C6.8 0 0 6.8 0 15.3C0 23.7 6.8 30.6 15.3 30.6C23.7 30.6 30.6 23.8 30.6 15.3C30.6 6.8 23.7 0 15.3 0ZM12.7 10.2C12.7 10.9 12.1 11.5 11.4 11.5C10.7 11.5 10.1 10.9 10.1 10.2C10.1 9.5 10.7 8.9 11.4 8.9C12.2 8.9 12.7 9.5 12.7 10.2ZM12.7 12.7H10.2V20.3H12.7V12.7ZM16.6 12.7H14.1V20.3H16.6C16.6 20.3 16.6 18 16.6 16.7C16.6 14.5 19.2 14.3 19.2 16.7C19.2 17.9 19.2 20.3 19.2 20.3H21.7C21.7 20.3 21.7 18.3 21.7 16C21.7 11.8 17.7 12 16.6 14V12.7Z" fill="#57984C"/>
</svg>
