<svg width="31" height="31" viewBox="0 0 31 31" fill="none" xmlns="http://www.w3.org/2000/svg">
<path d="M15.3 2.5C22.3 2.5 28 8.2 28 15.2C28 22.2 22.3 27.9 15.3 27.9C8.3 27.9 2.5 22.3 2.5 15.3C2.5 8.3 8.3 2.5 15.3 2.5ZM15.3 0C6.8 0 0 6.8 0 15.3C0 23.7 6.8 30.6 15.3 30.6C23.7 30.6 30.6 23.8 30.6 15.3C30.6 6.8 23.7 0 15.3 0ZM23.6 11.2C23 11.5 22.4 11.6 21.8 11.7C22.4 11.3 22.9 10.7 23.2 10C22.6 10.4 21.9 10.6 21.2 10.8C20.6 10.2 19.8 9.8 18.9 9.8C16.9 9.8 15.4 11.7 15.8 13.7C13.2 13.6 10.9 12.3 9.3 10.4C8.5 11.8 8.9 13.7 10.3 14.6C9.8 14.6 9.3 14.4 8.9 14.2C8.9 15.7 9.9 17 11.4 17.3C11 17.4 10.5 17.4 10 17.4C10.4 18.6 11.6 19.6 12.9 19.6C11.6 20.6 9.9 21.1 8.3 20.9C9.7 21.8 11.3 22.3 13.1 22.3C18.9 22.3 22.2 17.4 22 13C22.6 12.4 23.2 11.8 23.6 11.2Z" fill="#57984C"/>
</svg>
