<svg width="31" height="31" viewBox="0 0 31 31" fill="none" xmlns="http://www.w3.org/2000/svg">
<path d="M10.6 7.6H11.5L12.1 10L12.7 7.6H13.7L12.6 11.1V13.5H11.7V11.1L10.6 7.6ZM14.8 9.2C14.1 9.2 13.6 9.7 13.6 10.4V12.5C13.6 13.3 14 13.7 14.8 13.7C15.5 13.7 16 13.3 16 12.5V10.4C16 9.6 15.5 9.2 14.8 9.2ZM15.1 12.4C15.1 12.6 15 12.8 14.8 12.8C14.6 12.8 14.4 12.6 14.4 12.4V10.4C14.4 10.2 14.5 10 14.7 10C14.9 10 15.1 10.2 15.1 10.4V12.4ZM18.2 9.2V12.5C18.1 12.6 17.9 12.8 17.7 12.8C17.5 12.8 17.5 12.7 17.5 12.5V9.2H16.7V12.8C16.7 13.2 16.8 13.6 17.3 13.6C17.5 13.6 17.9 13.5 18.2 13.1V13.6H19V9.2H18.2ZM19.6 18C19.3 18 19.3 18.2 19.3 18.5V18.9H20V18.5C19.9 18.2 19.8 18 19.6 18ZM16.6 18C16.5 18 16.5 18.1 16.4 18.1V20.7C16.5 20.8 16.5 20.8 16.6 20.8C16.7 20.9 16.9 20.9 17 20.8C17 20.7 17.1 20.6 17.1 20.5V18.4C17.1 18.3 17.1 18.2 17 18.1C16.9 18 16.7 18 16.6 18ZM19.6 14.7C17.9 14.6 12.5 14.6 10.9 14.7C9.1 14.8 8.9 15.9 8.9 18.8C8.9 21.6 9.1 22.7 10.9 22.9C12.6 23 17.9 23 19.6 22.9C21.4 22.8 21.6 21.7 21.6 18.8C21.6 15.9 21.4 14.9 19.6 14.7ZM11.8 21.5H10.9V16.7H10V15.9H12.7V16.7H11.8V21.5ZM14.9 21.5H14.1V21C14 21.2 13.8 21.3 13.7 21.4C13.3 21.6 12.7 21.6 12.7 20.8V17.3H13.5V20.5C13.5 20.7 13.5 20.8 13.7 20.8C13.9 20.8 14.1 20.6 14.2 20.5V17.4H15V21.5H14.9ZM17.8 20.7C17.8 21.2 17.6 21.6 17.1 21.6C16.8 21.6 16.6 21.5 16.4 21.2V21.5H15.6V15.9H16.4V17.7C16.6 17.5 16.8 17.3 17.1 17.3C17.7 17.3 17.9 17.8 17.9 18.3V20.7H17.8ZM20.7 19.6H19.2V20.4C19.2 20.7 19.2 21 19.5 21C19.8 21 19.8 20.8 19.8 20.4V20.1H20.7V20.4C20.7 21.2 20.4 21.7 19.5 21.7C18.8 21.7 18.4 21.2 18.4 20.4V18.5C18.4 17.8 18.9 17.3 19.6 17.3C20.3 17.3 20.7 17.8 20.7 18.5V19.6ZM15.3 2.5C22.3 2.5 28 8.2 28 15.2C28 22.2 22.3 27.9 15.3 27.9C8.3 27.9 2.6 22.2 2.6 15.2C2.5 8.3 8.3 2.5 15.3 2.5ZM15.3 0C6.8 0 0 6.8 0 15.3C0 23.7 6.8 30.6 15.3 30.6C23.7 30.6 30.6 23.8 30.6 15.3C30.6 6.8 23.7 0 15.3 0Z" fill="#57984C"/>
</svg>
