<svg width="49" height="49" viewBox="0 0 49 49" fill="none" xmlns="http://www.w3.org/2000/svg">
<path d="M20.2534 48.5699C16.5312 48.5806 12.8438 47.853 9.40465 46.4291C5.96551 45.0052 2.84295 42.9132 0.217727 40.2744C0.148737 40.206 0.0939776 40.1246 0.0566086 40.0349C0.0192395 39.9452 0 39.849 0 39.7518C0 39.6546 0.0192395 39.5584 0.0566086 39.4687C0.0939776 39.379 0.148737 39.2976 0.217727 39.2292L39.2292 0.217727C39.2976 0.148737 39.3791 0.0939776 39.4687 0.0566086C39.5584 0.0192395 39.6546 0 39.7518 0C39.849 0 39.9452 0.0192395 40.0349 0.0566086C40.1246 0.0939776 40.206 0.148737 40.2744 0.217727C45.5855 5.53297 48.5689 12.7395 48.5689 20.2534C48.5689 27.7674 45.5855 34.9739 40.2744 40.2891C37.6492 42.9229 34.5284 45.0106 31.0921 46.4319C27.6558 47.8532 23.9721 48.5798 20.2534 48.5699ZM1.78555 39.7371C6.8665 44.5468 13.6237 47.1841 20.6194 47.0879C27.6151 46.9917 34.2972 44.1695 39.2439 39.2219C44.1884 34.2745 47.0078 27.5934 47.1027 20.5995C47.1975 13.6055 44.5603 6.85047 39.7518 1.77083L1.78555 39.7371Z" fill="#324950"/>
</svg>
